<svg xmlns="http://www.w3.org/2000/svg" viewBox="0 0 32 32"><defs><style>.cls-1{fill:#44d62c;}.cls-2{fill:none;stroke:#44d62c;stroke-miterlimit:10;}</style></defs><title>icon</title><g id="Layer_2" data-name="Layer 2"><path class="cls-1" d="M16,30A14,14,0,1,1,30,16,14,14,0,0,1,16,30ZM16,3.06A12.94,12.94,0,1,0,28.94,16,12.95,12.95,0,0,0,16,3.06Z"/><rect class="cls-2" x="8.64" y="12.85" width="14.72" height="10.52" rx="1.35"/><line class="cls-2" x1="8.64" y1="16.99" x2="23.36" y2="16.99"/><line class="cls-2" x1="16" y1="12.85" x2="16" y2="23.38"/><path class="cls-2" d="M17.18,9.53a4.68,4.68,0,0,0-1.12,3.07,4.67,4.67,0,0,0,3.09-1.06C20.31,10.4,20.82,9,20.27,8.47S18.34,8.39,17.18,9.53Z"/><path class="cls-2" d="M14.88,9.53A4.68,4.68,0,0,1,16,12.6a4.66,4.66,0,0,1-3.09-1.06C11.74,10.4,11.24,9,11.78,8.47S13.71,8.39,14.88,9.53Z"/></g></svg>