<?xml version="1.0" encoding="UTF-8"?>
<svg id="Layer_2" data-name="Layer 2" xmlns="http://www.w3.org/2000/svg" xmlns:xlink="http://www.w3.org/1999/xlink" viewBox="0 0 32 32">
  <defs>
    <style>
      .cls-1 {
        fill: url(#linear-gradient);
      }

      .cls-1, .cls-2, .cls-3, .cls-4, .cls-5, .cls-6, .cls-7, .cls-8, .cls-9, .cls-10 {
        stroke-width: 0px;
      }

      .cls-2 {
        fill: url(#linear-gradient-6);
      }

      .cls-3 {
        fill: url(#linear-gradient-5);
      }

      .cls-4 {
        fill: url(#linear-gradient-2);
      }

      .cls-5 {
        fill: url(#linear-gradient-7);
      }

      .cls-6 {
        fill: url(#radial-gradient-2);
      }

      .cls-7 {
        fill: url(#linear-gradient-3);
      }

      .cls-8 {
        fill: url(#radial-gradient);
      }

      .cls-9 {
        fill: url(#radial-gradient-3);
      }

      .cls-10 {
        fill: url(#linear-gradient-4);
      }
    </style>
    <linearGradient id="linear-gradient" x1="8.8817" y1="190.1093" x2="28.0913" y2="179.0198" gradientTransform="translate(0 202) scale(1 -1)" gradientUnits="userSpaceOnUse">
      <stop offset="0" stop-color="#bababa"/>
      <stop offset=".34" stop-color="#f7f7f7"/>
      <stop offset=".57" stop-color="#d1d1d1"/>
      <stop offset=".74" stop-color="#cdcdcd"/>
      <stop offset=".75" stop-color="#c6c6c6"/>
      <stop offset=".8" stop-color="#b9b9b9"/>
      <stop offset=".87" stop-color="#b2b2b2"/>
      <stop offset="1" stop-color="#b0b0b0"/>
    </linearGradient>
    <radialGradient id="radial-gradient" cx="16" cy="186" fx="16" fy="186" r="14" gradientTransform="translate(0 202) scale(1 -1)" gradientUnits="userSpaceOnUse">
      <stop offset=".16" stop-color="#f7f7f7"/>
      <stop offset=".57" stop-color="#cdcdcd"/>
      <stop offset="1" stop-color="#959595"/>
    </radialGradient>
    <radialGradient id="radial-gradient-2" cx="16" cy="189.3245" fx="16" fy="189.3245" r="15.0687" xlink:href="#radial-gradient"/>
    <radialGradient id="radial-gradient-3" cx="66.5998" cy="342.8669" fx="66.5998" fy="342.8669" r="11.5746" gradientTransform="translate(-46.77 338.46) scale(.94 -.94)" gradientUnits="userSpaceOnUse">
      <stop offset="0" stop-color="#d8d8d8" stop-opacity="0"/>
      <stop offset=".86" stop-color="#c6c6c6" stop-opacity="0"/>
      <stop offset="1" stop-color="#838383"/>
    </radialGradient>
    <linearGradient id="linear-gradient-2" x1="16" y1="175.08" x2="16" y2="196.9279" gradientTransform="translate(0 202) scale(1 -1)" gradientUnits="userSpaceOnUse">
      <stop offset="0" stop-color="#333"/>
      <stop offset="1" stop-color="#4d4d4d"/>
    </linearGradient>
    <linearGradient id="linear-gradient-3" x1="16" y1="174.6856" x2="16" y2="197.3223" gradientTransform="translate(0 202) scale(1 -1)" gradientUnits="userSpaceOnUse">
      <stop offset=".05" stop-color="#fafafa"/>
      <stop offset=".59" stop-color="#fafafa" stop-opacity=".03"/>
    </linearGradient>
    <linearGradient id="linear-gradient-4" x1="15.5928" y1="177.6276" x2="15.5928" y2="192.9211" xlink:href="#linear-gradient-2"/>
    <linearGradient id="linear-gradient-5" x1="14.8714" y1="177.6276" x2="14.8714" y2="192.9211" xlink:href="#linear-gradient-2"/>
    <linearGradient id="linear-gradient-6" x1="14.7546" y1="177.6276" x2="14.7546" y2="192.9211" xlink:href="#linear-gradient-2"/>
    <linearGradient id="linear-gradient-7" x1="16.9898" y1="177.6276" x2="16.9898" y2="192.9211" xlink:href="#linear-gradient-2"/>
  </defs>
  <circle class="cls-1" cx="16" cy="16" r="14"/>
  <path class="cls-8" d="M16,2.3944c7.5008,0,13.6056,6.1048,13.6056,13.6056s-6.1048,13.6056-13.6056,13.6056S2.3944,23.5008,2.3944,16,8.4992,2.3944,16,2.3944M16,2c-7.7335,0-14,6.2665-14,14s6.2665,14,14,14,14-6.2665,14-14S23.7335,2,16,2h0Z"/>
  <circle class="cls-6" cx="16" cy="16" r="10.9239"/>
  <circle class="cls-9" cx="16" cy="16" r="10.9239"/>
  <path class="cls-4" d="M16,5.4665c5.8051,0,10.5296,4.7245,10.5296,10.5296s-4.7245,10.5296-10.5296,10.5296-10.5296-4.7245-10.5296-10.5296S10.1949,5.4665,16,5.4665M16,5.0721c-6.0338,0-10.9239,4.8901-10.9239,10.9239s4.8901,10.9239,10.9239,10.9239,10.9239-4.8901,10.9239-10.9239-4.8901-10.9239-10.9239-10.9239h0Z"/>
  <path class="cls-7" d="M16,5.0721c6.0338,0,10.9239,4.8901,10.9239,10.9239s-4.8901,10.9239-10.9239,10.9239-10.9239-4.8901-10.9239-10.9239S9.9662,5.0721,16,5.0721M16,4.6777c-6.2428,0-11.3183,5.0794-11.3183,11.3183s5.0794,11.3183,11.3183,11.3183,11.3183-5.0794,11.3183-11.3183-5.0794-11.3183-11.3183-11.3183h0Z"/>
  <g>
    <path class="cls-10" d="M15.373,13.413c-.0394.2958-.1972.9228-.1183,1.3014.0986.489.4732.4614.6113.2208.0749-.1301.1183-.3549.0592-.6034-.0749-.3234-.2642-.6783-.5521-.9189ZM15.7082,14.8051c-.0473.1065-.1854.1065-.2366-.1262-.0434-.2051.0197-.6034.0394-.7769.0986.1499.1656.3076.2051.4772.0473.2011.0237.3549-.0079.4259Z"/>
    <path class="cls-3" d="M15.2507,15.7161c-.1499,0-.3668.0749-.5521.2524-.2406.2248-.4575.5679-.5206.9346.2761-.1144.8952-.2918,1.187-.5482.3707-.3313.1617-.6389-.1144-.6389ZM15.227,16.1893c-.1538.142-.5324.2839-.6941.3549.0828-.1577.1854-.2997.3115-.418.1499-.142.2958-.1972.3746-.209.1144-.0118.1854.1104.0079.2721Z"/>
    <path class="cls-2" d="M21.3555,9.9504c.0118-.0513,0-.1104-.0237-.1538-.0158-.0237-.0316-.0473-.0552-.0631-.0868-.067-.209-.0552-.2879.0237l-.1223.1262-.2248.0907c-.071-.0237-.1499-.0276-.2327-.0079-.0434.0118-.0592.0079-.0946,0-.0868-.0158-.1735-.0276-.3155.0197-.0513,0-.1065.0039-.1972.0355-.1144.0355-.1814.1262-.2327.1893-.0079.0079-.0158.0197-.0197.0276-.3115.0789-.4456.2524-.5048.3825-.0197.0394-.0316.0828-.0394.1262-.0592-.0434-.1223-.0828-.1814-.1104-.3628-.1656-.8282-.0986-1.1594.1696-.351.2839-.493.7256-.3865,1.2068.0434.1932.1223.3865.2406.5876.2445.4259.6152.8163.9741,1.1949.3155.3352.6152.6507.7848.9465.0118.0197.0197.0355.0316.0552.2208.422.1814.7335-.1223.9228-.1104.071-.2208.0986-.3194.1104.1065-.3115.1538-.7493-.0828-1.1594-.0473-.0789-.1025-.1577-.1656-.2287-.4417-.4851-.9149-.3786-1.1003-.2524-.0828.0552-.1183.1617-.0828.2563.0039.0118.0079.0237.0158.0316.0434.0749.1262.1183.213.1065.1972-.0237.4141.1065.5403.3273.0513.0907.1854.3825-.0039.698-.1223-.0946-.2208-.2051-.2997-.2879-.0118-.0158-.0276-.0276-.0394-.0394-.0039-.0079-.0118-.0158-.0237-.0237-.3668-.4023-.7296-.631-1.0766-.6783,0-.2642-.0789-.5442-.2287-.8124-.1775-.3234-.4456-.6152-.7611-.8321-.0552-.0355-.1025-.067-.1499-.0907-.1223-.911-.7217-1.3842-1.262-1.5223-.6468-.1656-1.2975.0868-1.6642.6389-.0316.0473-.0631.0986-.0907.1499-.2721.4732-.4299,1.0254-.5837,1.5577-.1301.4535-.2524.8834-.4338,1.2265-.0118.0197-.0197.0394-.0316.0592-.1223.209-.2287.3273-.3431.3628-.0552.0158-.1262.0237-.209-.0355-.1144-.0789-.0868-.2366.0158-.5442.0276-.0907.0552-.1735.071-.2524.0355-.2011-.0039-.3904-.1144-.5324-.1025-.1341-.2603-.2169-.4417-.2327-.1735-.0158-.4259.0434-.6349.4062-.0197.0316-.0316.0592-.0434.0828-.0316-.0789-.0789-.1854-.1775-.2563-.0789-.0552-.1341-.0789-.1814-.0907-.1223-.0868-.209-.1025-.2958-.1104-.0394-.0039-.0552-.0079-.0946-.0276-.0789-.0434-.1617-.0631-.2406-.0552l-.1814-.142-.0789-.1538c-.0513-.0986-.1696-.142-.2721-.1025-.0473.0197-.0828.0513-.1065.0946-.0158.0276-.0276.0592-.0276.0946-.0513.0158-.0946.0513-.1223.0986-.0158.0237-.0237.0513-.0276.0828-.0118.1104.0552.209.1617.2366l.1696.0434.1932.1499c.0118.0749.0513.1459.1104.2051.0316.0316.0355.0434.0473.0828.0276.0828.0631.1656.1735.2642.0237.0434.0592.0907.1301.1538.0907.0789.1972.0946.28.1065.0079,0,.0237,0,.0316.0039.2248.2287.4417.2603.5837.2445.0434-.0039.0868-.0158.1301-.0276-.0079.0749-.0118.1459,0,.213.0355.3944.3313.7651.7256.9189.422.1617.8755.0631,1.2383-.2682.1459-.1341.2721-.2958.3904-.5008.2445-.4259.3983-.9425.5482-1.4434.1301-.4417.2563-.8597.4259-1.1555.0118-.0197.0197-.0355.0316-.0552.2563-.4023.5442-.5245.8597-.3549.1144.0631.1972.142.2563.2208-.3234.0631-.7296.2406-.9623.6507-.0473.0789-.0828.1656-.1144.2603-.1972.627.1301.982.3313,1.0806.0907.0434.1972.0197.2603-.0552.0079-.0079.0158-.0197.0197-.0316.0434-.0749.0394-.1696-.0158-.2366-.1183-.1577-.1144-.4141.0118-.631.0513-.0907.2366-.351.6073-.3431-.0237.1538-.067.2958-.0986.4062-.0039.0197-.0118.0355-.0158.0513,0,.0079-.0039.0197-.0079.0316-.1656.5206-.1814.9465-.0513,1.2699-.2287.1341-.4299.3392-.5915.6034-.1893.3155-.3115.6941-.3392,1.0727-.0039.067-.0039.1223,0,.1735-.7296.56-.84,1.3172-.6862,1.8535.1814.6428.7217,1.0806,1.3842,1.12.0552,0,.1144.0039.1735.0039.5482,0,1.1042-.138,1.6406-.2761.4575-.1144.8913-.2248,1.2777-.2366h.067c.2406,0,.3944.0355.4851.1144.0434.0394.0828.0986.0749.2011-.0118.138-.1617.1932-.4772.2603-.0907.0197-.1775.0355-.2524.0631-.1932.071-.3352.2011-.4023.3628-.0631.1538-.0552.3313.0197.4969.0749.1577.2485.347.6665.347h.0946c-.0513.067-.1223.1577-.1341.2839-.0079.0946,0,.1538.0118.2011-.0118.1499.0158.2327.0513.3115.0158.0355.0237.0513.0237.0986,0,.0907.0276.1735.0749.2366l-.0316.2287-.0946.1459c-.0592.0946-.0394.2169.0473.2879.0394.0316.0868.0473.1341.0473.0316,0,.067-.0079.0946-.0237.0394.0355.0907.0552.1459.0552.0276,0,.0552-.0039.0828-.0158.1025-.0434.1538-.1538.1223-.2603l-.0473-.1696.0355-.2406c.0552-.0473.0986-.1144.1223-.1972.0118-.0434.0197-.0552.0473-.0828.0552-.067.1104-.138.142-.2839.0276-.0434.0513-.0946.067-.1893.0237-.1183-.0158-.2208-.0473-.2958,0-.0079-.0079-.0197-.0118-.0316.0868-.3076.0039-.5127-.0789-.631-.0276-.0355-.0552-.067-.0907-.0986.067-.0316.1341-.067.1854-.1025.3234-.2287.4969-.6665.4299-1.0885-.071-.4496-.3825-.7887-.8518-.9386-.1893-.0592-.3944-.0868-.631-.0868-.489,0-1.0135.1262-1.5223.2445-.4496.1065-.8715.209-1.2146.209h-.0631c-.4772-.0197-.7256-.209-.7375-.5679-.0039-.1301.0237-.2445.0631-.3313.2169.2485.5718.5087,1.0451.5087.0946,0,.1893-.0118.28-.0316.6428-.142.7848-.6034.769-.8282-.0079-.0986-.0828-.1814-.1814-.1972h-.0355c-.0868,0-.1656.0513-.1972.1301-.0789.1814-.2997.3037-.5521.3037-.1065,0-.422-.0276-.6034-.3549.1459-.0592.2879-.0907.4023-.1183.0197-.0039.0355-.0079.0552-.0118.0079,0,.0197-.0039.0316-.0079.5324-.1183.911-.3155,1.1239-.5915.2327.1301.5087.2011.8203.209.3668.0079.7572-.0789,1.1003-.2445.0592-.0276.1065-.0552.1538-.0828.8518.351,1.5617.067,1.9482-.3313.4654-.4772.5758-1.1673.28-1.7589-.0237-.0513-.0552-.1025-.0828-.1538-.2721-.4732-.6744-.8834-1.0569-1.2817-.3273-.3392-.6389-.6586-.8439-.9899-.0118-.0197-.0237-.0394-.0355-.0592-.1223-.209-.1696-.3589-.142-.4772.0118-.0552.0434-.1183.1341-.1656.1262-.0592.2485.0434.4654.2839.0631.071.1223.1341.1814.1854.1577.1301.3392.1893.5166.1656.1656-.0237.3155-.1183.422-.2682.0986-.142.1735-.3904-.0355-.7493-.0197-.0316-.0355-.0592-.0473-.0789.0868.0118.2011.0276.3115-.0276.0868-.0394.1341-.0749.1696-.1104.1341-.0631.1932-.1301.2445-.2011.0237-.0316.0316-.0434.0749-.067.0789-.0434.1341-.1104.1656-.1814l.2169-.0868.1735.0079c.1104.0039.209-.0749.2248-.1854.0079-.0513,0-.0986-.0276-.138-.0158-.0276-.0394-.0513-.067-.071h-.0079ZM21.0124,10.12l-.3668.1459c.0118.0552-.0197.1104-.0868.1538-.1775.1025-.1104.1814-.3273.2721-.0434.0197-.0079.0355-.142.0986-.0946.0434-.2366-.0118-.3115,0-.0789.0158-.2406.1025-.1144.3037.0552.0907.2721.3865.1104.6231-.142.2051-.3944.2485-.6231.0592-.2051-.1735-.4969-.6862-.8794-.5008-.3983.1932-.28.6349-.0473,1.0096.493.7887,1.5183,1.4946,1.9758,2.4056.5639,1.12-.6192,2.4293-2.0586,1.747-.0749.0552-.1341.0946-.2248.138-.6192.2997-1.4158.3194-1.893-.0789-.2208.5285-1.0056.6665-1.1397.698-.1617.0394-.4338.0907-.6823.2327.2721.9031,1.3842.8163,1.6327.2406,0,0,.0316.4654-.5994.6034-.6665.1459-1.1358-.3589-1.2817-.6507-.1499.1538-.2879.4101-.2761.7217.0158.3865.2563.7493.9465.7769.9346.0355,2.3859-.6862,3.3718-.3746.8913.28.8755,1.2777.3589,1.6445-.1696.1223-.4851.2051-.6901.2169-.1025.0039-.1104.0552-.1025.0828.0118.0355.067.0394.1577.0276.3273-.0316.6783.1577.5245.6546-.0237.0789.0868.2051.067.3076-.0316.1459-.0552.1144-.0631.1617-.0394.2327-.1341.1854-.1893.3825-.0237.0789-.071.1104-.1144.1183l-.0552.3944.0631.213-.1025-.1814-.142.1459.1183-.1854.0552-.3904c-.0513-.0158-.0868-.071-.0868-.1499,0-.2051-.1025-.1854-.071-.422.0039-.0473-.0276-.0237-.0158-.1735.0079-.1025.1301-.1972.1538-.2682.0237-.0789.0316-.2603-.2051-.2524-.1065.0039-.4732.0434-.5955-.2169-.1065-.2287-.0197-.4654.2603-.5679.2524-.0907.84-.0868.8715-.5127.0316-.4417-.4101-.56-.8479-.5442-.9307.0355-2.0546.5679-3.0721.5087-1.2501-.071-1.7944-1.7549-.4851-2.6541-.0118-.0907-.0118-.1656-.0079-.2603.0513-.6862.4299-1.3882,1.0135-1.5972-.347-.4575-.0749-1.2028-.0355-1.3369.0473-.1617.138-.422.138-.7059-.9189-.2169-1.4.7927-1.0214,1.2935,0,0-.418-.2051-.2208-.8203.2051-.6507.8794-.8045,1.2028-.7848-.0592-.2051-.213-.4535-.489-.5994-.3431-.1814-.7769-.1499-1.1437.4299-.4969.7887-.5994,2.4056-1.3606,3.1076-.6862.631-1.5459.1183-1.6051-.5087-.0197-.209.0631-.5206.1577-.7059.0473-.0907.0079-.1223-.0197-.1262-.0394-.0079-.067.0394-.1025.1223-.138.2997-.4772.5087-.8282.1262-.0552-.0592-.2208-.0276-.2997-.0946-.1144-.0986-.071-.1065-.1104-.138-.1814-.1499-.0907-.209-.2366-.3549-.0592-.0592-.0592-.1183-.0434-.1577l-.3155-.2485-.2169-.0513h.2051l-.0552-.1932.1025.1972.3115.2445c.0394-.0355.1065-.0394.1735,0,.1775.1025.213.0039.3983.1459.0394.0276.0355-.0118.1577.0749.0868.0592.1065.213.1577.2682.0552.0592.209.1577.3194-.0513.0473-.0946.2011-.4299.4851-.4062.2485.0197.4101.2169.3589.5087-.0473.2642-.347.773.0079,1.0096.3628.2485.6901-.0749.8952-.4614.4338-.8242.5363-2.0625,1.0963-2.9144.6901-1.049,2.4175-.6783,2.5437.907.0828.0355.1499.071.2287.1262.5679.3865.9859,1.0687.8755,1.68.5679-.071,1.0766.5403,1.1752.6389.1144.1223.2958.3313.5403.4732.6468-.6901.0158-1.609-.6073-1.5341,0,0,.3865-.2563.8203.2169.4614.5048.2563,1.1673.0789,1.4355.209.0513.5008.0434.7651-.1223.3273-.2051.5206-.5955.1972-1.2068-.4338-.8282-1.7865-1.7234-2.0113-2.733-.2051-.911.6704-1.3961,1.2423-1.1358.1893.0868.418.3155.5324.489.0552.0868.1025.067.1223.0473.0276-.0276,0-.0789-.0513-.1499-.1893-.2682-.2011-.6665.3037-.7808.0789-.0158.1341-.1775.2327-.213.142-.0473.1262-.0079.1735-.0276.2208-.0828.2287.0237.4259-.0276.0828-.0197.1301.0039.1577.0394l.3707-.1499.1538-.1617-.1065.1775.1972.0473-.2208-.0118h.0158Z"/>
    <path class="cls-5" d="M16.2327,15.858c.0749.1301.2485.28.493.3549.3155.0986.7217.1104,1.0687-.0197-.2366-.1814-.702-.631-1.0648-.7532-.4732-.1577-.6349.1775-.4969.418ZM16.7887,16.0039c-.1972-.0592-.3194-.1538-.3668-.2208-.067-.0907,0-.213.2287-.142.2011.0631.5127.3194.6546.422-.1775.0079-.351-.0118-.5166-.0631v.0039Z"/>
  </g>
</svg>